#N canvas 0 0 1920 997 12;
#X obj 574 58 bng 19 250 50 0 empty empty empty 0 -10 0 12 #fcfcfc #000000 #000000;
#X obj 510 190 metro 100;
#X obj 533 64 tgl 19 0 empty empty empty 0 -10 0 12 #fcfcfc #000000 #000000 0 1;
#X obj 710 5 key;
#X floatatom 705 43 5 0 0 0 - - - 0;
#X obj 713 64 select 97 115 100 102 103 104 106 107 108 59 39 92 122, f 71;
#X obj 777 -298 bng 19 250 50 0 empty empty empty 0 -10 0 12 #feffc6 #000000 #000000;
#X obj 806 -298 bng 19 250 50 0 empty empty empty 0 -10 0 12 #feffc6 #000000 #000000;
#X obj 836 -298 bng 19 250 50 0 empty empty empty 0 -10 0 12 #feffc6 #000000 #000000;
#X obj 864 -297 bng 19 250 50 0 empty empty empty 0 -10 0 12 #feffc6 #000000 #000000;
#X obj 894 -297 bng 19 250 50 0 empty empty empty 0 -10 0 12 #feffc6 #000000 #000000;
#X obj 921 -296 bng 19 250 50 0 empty empty empty 0 -10 0 12 #feffc6 #000000 #000000;
#X obj 948 -296 bng 19 250 50 0 empty empty empty 0 -10 0 12 #feffc6 #000000 #000000;
#X obj 975 -295 bng 19 250 50 0 empty empty empty 0 -10 0 12 #feffc6 #000000 #000000;
#X obj 1002 -294 bng 19 250 50 0 empty empty empty 0 -10 0 12 #feffc6 #000000 #000000;
#X obj 1029 -294 bng 19 250 50 0 empty empty empty 0 -10 0 12 #feffc6 #000000 #000000;
#X obj 1056 -294 bng 19 250 50 0 empty empty empty 0 -10 0 12 #feffc6 #000000 #000000;
#X obj 1082 -294 bng 19 250 50 0 empty empty empty 0 -10 0 12 #feffc6 #000000 #000000;
#X obj 1107 -293 bng 19 250 50 0 empty empty empty 0 -10 0 12 #feffc6 #000000 #000000;
#X obj 236 387 *~;
#X obj 225 338 osc~;
#X floatatom 227 305 8 0 0 0 - - - 0;
#X obj 125 409 *~;
#X obj 124 370 osc~;
#X floatatom 123 335 8 0 0 0 - - - 0;
#X obj 35 440 *~;
#X obj 34 401 osc~;
#X floatatom 33 366 8 0 0 0 - - - 0;
#X obj 230 618 *~;
#X obj 229 256 * 1;
#X obj 139 270 * 2;
#X obj 28 276 * 5.99329;
#X obj 261 523 vline~;
#X obj 646 377 *~;
#X obj 652 330 osc~;
#X floatatom 651 295 8 0 0 0 - - - 0;
#X obj 552 401 *~;
#X obj 551 362 osc~;
#X floatatom 550 327 8 0 0 0 - - - 0;
#X obj 462 432 *~;
#X obj 461 393 osc~;
#X floatatom 460 358 8 0 0 0 - - - 0;
#X obj 657 610 *~;
#X obj 656 248 * 1;
#X obj 566 262 * 2;
#X obj 455 268 * 5.99329;
#X obj 688 515 vline~;
#X obj 1136 499 *~;
#X obj 1142 452 osc~;
#X floatatom 1141 417 8 0 0 0 - - - 0;
#X obj 1042 523 *~;
#X obj 1041 484 osc~;
#X floatatom 1040 449 8 0 0 0 - - - 0;
#X obj 952 554 *~;
#X obj 951 515 osc~;
#X floatatom 950 480 8 0 0 0 - - - 0;
#X obj 1147 732 *~;
#X obj 1146 370 * 1;
#X obj 1056 384 * 2;
#X obj 945 390 * 5.99329;
#X obj 1178 637 vline~;
#X obj 1573 493 *~;
#X obj 1579 446 osc~;
#X floatatom 1578 411 8 0 0 0 - - - 0;
#X obj 1479 517 *~;
#X obj 1478 478 osc~;
#X floatatom 1477 443 8 0 0 0 - - - 0;
#X obj 1389 548 *~;
#X obj 1388 509 osc~;
#X floatatom 1387 474 8 0 0 0 - - - 0;
#X obj 1584 726 *~;
#X obj 1583 364 * 1;
#X obj 1493 378 * 2;
#X obj 1382 384 * 5.99329;
#X obj 1615 631 vline~;
#X obj 1908 453 *~;
#X obj 1914 406 osc~;
#X floatatom 1914 367 8 0 0 0 - - - 0;
#X obj 1814 477 *~;
#X obj 1813 438 osc~;
#X floatatom 1812 403 8 0 0 0 - - - 0;
#X obj 1724 508 *~;
#X obj 1723 469 osc~;
#X floatatom 1722 434 8 0 0 0 - - - 0;
#X obj 1919 686 *~;
#X obj 1918 324 * 1;
#X obj 1828 338 * 2;
#X obj 1717 344 * 5.99329;
#X obj 1950 591 vline~;
#X obj 262 783 *~;
#X obj 268 736 osc~;
#X floatatom 267 701 8 0 0 0 - - - 0;
#X obj 168 807 *~;
#X obj 167 768 osc~;
#X floatatom 166 733 8 0 0 0 - - - 0;
#X obj 78 838 *~;
#X obj 77 799 osc~;
#X floatatom 76 764 8 0 0 0 - - - 0;
#X obj 273 1016 *~;
#X obj 275 674 * 1;
#X obj 180 687 * 2;
#X obj 70 686 * 5.99329;
#X obj 304 921 vline~;
#X obj 777 791 *~;
#X obj 783 744 osc~;
#X floatatom 782 709 8 0 0 0 - - - 0;
#X obj 683 815 *~;
#X obj 682 776 osc~;
#X floatatom 681 741 8 0 0 0 - - - 0;
#X obj 593 846 *~;
#X obj 592 807 osc~;
#X floatatom 591 772 8 0 0 0 - - - 0;
#X obj 788 1024 *~;
#X obj 787 662 * 1;
#X obj 697 676 * 2;
#X obj 586 682 * 5.99329;
#X obj 819 929 vline~;
#X obj 1268 851 *~;
#X obj 1274 804 osc~;
#X floatatom 1273 769 8 0 0 0 - - - 0;
#X obj 1174 875 *~;
#X obj 1173 836 osc~;
#X floatatom 1172 801 8 0 0 0 - - - 0;
#X obj 1084 906 *~;
#X obj 1083 867 osc~;
#X floatatom 1082 832 8 0 0 0 - - - 0;
#X obj 1270 1078 *~;
#X obj 1278 722 * 1;
#X obj 1188 736 * 2;
#X obj 1077 742 * 5.99329;
#X obj 1310 989 vline~;
#X obj 558 137 vline~;
#X msg 701 133 0 \, 277.18;
#X obj 660 165 vline~;
#X obj 161 381 vline~;
#X msg 565 99 0 \, 261.63;
#X obj 276 352 vline~;
#X msg 188 341 0 \, 0.2;
#X msg 311 300 0 \, 0.4;
#X obj 71 397 vline~;
#X msg 80 374 0 \, 0.1;
#X obj 694 324 vline~;
#X msg 729 272 0 \, 0.4;
#X obj 588 368 vline~;
#X msg 601 336 0 \, 0.2;
#X obj 502 391 vline~;
#X msg 511 368 0 \, 0.1;
#X obj 1178 471 vline~;
#X msg 1217 436 0 \, 0.4;
#X obj 1078 496 vline~;
#X msg 1105 456 0 \, 0.2;
#X obj 988 515 vline~;
#X msg 997 492 0 \, 0.1;
#X obj 1604 472 vline~;
#X msg 1643 437 0 \, 0.4;
#X obj 1510 488 vline~;
#X msg 1537 448 0 \, 0.2;
#X obj 1424 519 vline~;
#X msg 1433 496 0 \, 0.1;
#X obj 1937 427 vline~;
#X msg 1976 392 0 \, 0.4;
#X obj 1845 446 vline~;
#X msg 1872 406 0 \, 0.2;
#X obj 1760 476 vline~;
#X msg 1769 453 0 \, 0.1;
#X obj 305 747 vline~;
#X msg 340 705 0 \, 0.4;
#X obj 206 773 vline~;
#X msg 233 733 0 \, 0.2;
#X obj 117 805 vline~;
#X msg 127 778 0 \, 0.1;
#X obj 815 767 vline~;
#X msg 852 722 0 \, 0.4;
#X obj 721 783 vline~;
#X msg 748 743 0 \, 0.2;
#X obj 628 816 vline~;
#X msg 638 789 0 \, 0.1;
#X obj 1311 818 vline~;
#X msg 1348 773 0 \, 0.4;
#X obj 1210 845 vline~;
#X msg 1237 805 0 \, 0.2;
#X obj 1117 873 vline~;
#X msg 1127 846 0 \, 0.1;
#X obj 1759 889 *~;
#X obj 1765 842 osc~;
#X floatatom 1764 807 8 0 0 0 - - - 0;
#X obj 1665 913 *~;
#X obj 1664 874 osc~;
#X floatatom 1663 839 8 0 0 0 - - - 0;
#X obj 1575 944 *~;
#X obj 1574 905 osc~;
#X floatatom 1573 870 8 0 0 0 - - - 0;
#X obj 1770 1122 *~;
#X obj 1772 780 * 1;
#X obj 1677 793 * 2;
#X obj 1567 792 * 5.99329;
#X obj 1801 1027 vline~;
#X obj 1802 853 vline~;
#X msg 1837 811 0 \, 0.4;
#X obj 1703 879 vline~;
#X msg 1730 839 0 \, 0.2;
#X obj 1614 911 vline~;
#X msg 1624 884 0 \, 0.1;
#X obj 2156 830 *~;
#X obj 2162 783 osc~;
#X floatatom 2161 748 8 0 0 0 - - - 0;
#X obj 2062 854 *~;
#X obj 2061 815 osc~;
#X floatatom 2060 780 8 0 0 0 - - - 0;
#X obj 1972 885 *~;
#X obj 1971 846 osc~;
#X floatatom 1970 811 8 0 0 0 - - - 0;
#X obj 2167 1063 *~;
#X obj 2169 721 * 1;
#X obj 2074 734 * 2;
#X obj 1964 733 * 5.99329;
#X obj 2198 968 vline~;
#X obj 2199 794 vline~;
#X msg 2234 752 0 \, 0.4;
#X obj 2100 820 vline~;
#X msg 2127 780 0 \, 0.2;
#X obj 2011 852 vline~;
#X msg 2021 825 0 \, 0.1;
#X obj 295 1187 *~;
#X obj 301 1140 osc~;
#X floatatom 300 1105 8 0 0 0 - - - 0;
#X obj 201 1211 *~;
#X obj 200 1172 osc~;
#X floatatom 199 1137 8 0 0 0 - - - 0;
#X obj 111 1242 *~;
#X obj 110 1203 osc~;
#X floatatom 109 1168 8 0 0 0 - - - 0;
#X obj 306 1420 *~;
#X obj 308 1078 * 1;
#X obj 213 1091 * 2;
#X obj 103 1090 * 5.99329;
#X obj 337 1325 vline~;
#X obj 338 1151 vline~;
#X msg 373 1109 0 \, 0.4;
#X obj 239 1177 vline~;
#X msg 266 1137 0 \, 0.2;
#X obj 150 1209 vline~;
#X msg 160 1182 0 \, 0.1;
#X obj 828 1160 *~;
#X obj 834 1113 osc~;
#X floatatom 833 1078 8 0 0 0 - - - 0;
#X obj 734 1184 *~;
#X obj 733 1145 osc~;
#X floatatom 732 1110 8 0 0 0 - - - 0;
#X obj 644 1215 *~;
#X obj 643 1176 osc~;
#X floatatom 642 1141 8 0 0 0 - - - 0;
#X obj 839 1393 *~;
#X obj 841 1051 * 1;
#X obj 746 1064 * 2;
#X obj 636 1063 * 5.99329;
#X obj 870 1298 vline~;
#X obj 871 1124 vline~;
#X msg 906 1082 0 \, 0.4;
#X obj 772 1150 vline~;
#X msg 799 1110 0 \, 0.2;
#X obj 683 1182 vline~;
#X msg 693 1155 0 \, 0.1;
#X obj 1325 1202 *~;
#X obj 1331 1155 osc~;
#X floatatom 1330 1120 8 0 0 0 - - - 0;
#X obj 1231 1226 *~;
#X obj 1230 1187 osc~;
#X floatatom 1229 1152 8 0 0 0 - - - 0;
#X obj 1141 1257 *~;
#X obj 1140 1218 osc~;
#X floatatom 1139 1183 8 0 0 0 - - - 0;
#X obj 1336 1435 *~;
#X obj 1338 1093 * 1;
#X obj 1243 1106 * 2;
#X obj 1133 1105 * 5.99329;
#X obj 1367 1340 vline~;
#X obj 1368 1166 vline~;
#X msg 1403 1124 0 \, 0.4;
#X obj 1269 1192 vline~;
#X msg 1296 1152 0 \, 0.2;
#X obj 1180 1224 vline~;
#X msg 1190 1197 0 \, 0.1;
#X msg 770 128 0 \, 293.66;
#X obj 772 151 vline~;
#X obj 828 159 vline~;
#X obj 885 156 vline~;
#X obj 947 157 vline~;
#X obj 1026 145 vline~;
#X obj 1084 153 vline~;
#X msg 845 128 0 \, 311.13;
#X msg 901 125 0 \, 329.63;
#X msg 963 130 0 \, 349.23;
#X msg 1022 120 0 \, 369.99;
#X msg 1099 124 0 \, 392;
#X msg 1163 132 0 \, 415.3;
#X obj 1150 161 vline~;
#X msg 1239 137 0 \, 440;
#X obj 1223 164 vline~;
#X obj 1282 172 vline~;
#X msg 1295 135 0 \, 466.16;
#X msg 1368 137 0 \, 493.88;
#X obj 1355 167 vline~;
#X msg 1454 128 0 \, 523.25;
#X obj 1439 166 vline~;
#X obj 356 211 loadbang;
#X obj 357 249 bang;
#X obj 769 196 loadbang;
#X obj 770 234 bang;
#X obj 1249 346 loadbang;
#X obj 1241 393 bang;
#X obj 1629 303 loadbang;
#X obj 1630 341 bang;
#X obj 1989 263 loadbang;
#X obj 1990 301 bang;
#X obj 856 606 loadbang;
#X obj 857 644 bang;
#X obj 411 629 loadbang;
#X obj 385 664 bang;
#X obj 1403 647 loadbang;
#X obj 1404 685 bang;
#X obj 1844 689 loadbang;
#X obj 1845 727 bang;
#X obj 2259 607 loadbang;
#X obj 2260 645 bang;
#X obj 1002 1017 loadbang;
#X obj 1003 1055 bang;
#X obj 1491 1056 loadbang;
#X obj 1492 1095 bang;
#X obj 483 994 loadbang;
#X obj 484 1032 bang;
#X obj 543 -27 loadbang;
#X obj 540 24 bang;
#X msg 275 590 0.5 100 0 \, 0.2 200 200 \, 0 400 1000;
#X msg 697 467 0.5 100 0 \, 0.2 200 200 \, 0 400 1000;
#X msg 307 884 0.5 100 0 \, 0.2 200 200 \, 0 400 1000;
#X msg 801 874 0.5 100 0 \, 0.2 200 200 \, 0 400 1000;
#X msg 1182 600 0.5 100 0 \, 0.2 200 200 \, 0 400 1000;
#X msg 1618 594 0.5 100 0 \, 0.2 200 200 \, 0 400 1000;
#X msg 1313 952 0.5 100 0 \, 0.2 200 200 \, 0 400 1000;
#X msg 873 1261 0.5 100 0 \, 0.2 200 200 \, 0 400 1000;
#X msg 1371 1251 0.5 100 0 \, 0.2 200 200 \, 0 400 1000;
#X msg 344 1247 0.5 100 0 \, 0.2 200 200 \, 0 400 1000;
#X msg 1804 990 0.5 100 0 \, 0.2 200 200 \, 0 400 1000;
#X msg 2201 931 0.5 100 0 \, 0.2 200 200 \, 0 400 1000;
#X msg 1953 554 0.5 100 0 \, 0.2 200 200 \, 0 400 1000;
#X obj 926 -1 *~, f 4;
#X obj 920 37 dac~;
#X obj 658 -753 vsl 19 162 0 1 0 1 empty empty Master\ volume 0 -9 0 12 #00faff #000000 #000000 16100 1;
#X obj 1245 -64 *~, f 8;
#X floatatom 1010 -26 5 0 0 0 - - - 0;
#X floatatom 1486 39 5 0 0 0 - - - 0;
#X obj 1640 -80 vsl 19 162 0 1 0 1 empty empty empty 0 -9 0 12 #fcfcfc #000000 #000000 15000 1;
#N canvas 0 50 450 250 (subpatch) 0;
#X array Waveform 500 float 1;
#A 0 0 0 0 0 0 0 0 0 0 0 0 0 0 0 0 0 0 0 0 0 0 0 0 0 0 0 0 0 0 0 0 0 0 0 0 0 0 0 0 0 0 0 0 0 0 0 0 0 0 0 0 0 0 0 0 0 0 0 0 0 0 0 0 0 0 0 0 0 0 0 0 0 0 0 0 0 0 0 0 0 0 0 0 0 0 0 0 0 0 0 0 0 0 0 0 0 0 0 0 0 0 0 0 0 0 0 0 0 0 0 0 0 0 0 0 0 0 0 0 0 0 0 0 0 0 0 0 0 0 0 0 0 0 0 0 0 0 0 0 0 0 0 0 0 0 0 0 0 0 0 0 0 0 0 0 0 0 0 0 0 0 0 0 0 0 0 0 0 0 0 0 0 0 0 0 0 0 0 0 0 0 0 0 0 0 0 0 0 0 0 0 0 0 0 0 0 0 0 0 0 0 0 0 0 0 0 0 0 0 0 0 0 0 0 0 0 0 0 0 0 0 0 0 0 0 0 0 0 0 0 0 0 0 0 0 0 0 0 0 0 0 0 0 0 0 0 0 0 0 0 0 0 0 0 0 0 0 0 0 0 0 0 0 0 0 0 0 0 0 0 0 0 0 0 0 0 0 0 0 0 0 0 0 0 0 0 0 0 0 0 0 0 0 0 0 0 0 0 0 0 0 0 0 0 0 0 0 0 0 0 0 0 0 0 0 0 0 0 0 0 0 0 0 0 0 0 0 0 0 0 0 0 0 0 0 0 0 0 0 0 0 0 0 0 0 0 0 0 0 0 0 0 0 0 0 0 0 0 0 0 0 0 0 0 0 0 0 0 0 0 0 0 0 0 0 0 0 0 0 0 0 0 0 0 0 0 0 0 0 0 0 0 0 0 0 0 0 0 0 0 0 0 0 0 0 0 0 0 0 0 0 0 0 0 0 0 0 0 0 0 0 0 0 0 0 0 0 0 0 0 0 0 0 0 0 0 0 0 0 0 0 0 0 0 0 0 0 0 0 0 0 0 0 0 0 0 0 0 0 0 0 0 0 0 0 0 0 0 0 0 0 0 0 0 0 0 0 0 0 0 0 0 0 0 0 0 0 0 0 0 0 0 0 0 0 0 0 0 0 0;
#X coords 0 1 499 -1 453 247 1 0 0;
#X restore 752 -807 graph;
#X obj 785 -4 tabwrite~ Waveform;
#X msg 945 -1108 Welcome!;
#X connect 0 0 354 0;
#X connect 1 0 0 0;
#X connect 2 0 1 0;
#X connect 3 0 4 0;
#X connect 4 0 5 0;
#X connect 5 0 135 0;
#X connect 5 1 132 0;
#X connect 5 2 283 0;
#X connect 5 3 290 0;
#X connect 5 4 291 0;
#X connect 5 5 292 0;
#X connect 5 6 293 0;
#X connect 5 7 294 0;
#X connect 5 8 295 0;
#X connect 5 9 297 0;
#X connect 5 10 300 0;
#X connect 5 11 301 0;
#X connect 5 12 303 0;
#X connect 6 0 333 0;
#X connect 7 0 334 0;
#X connect 8 0 337 0;
#X connect 9 0 338 0;
#X connect 10 0 345 0;
#X connect 11 0 335 0;
#X connect 12 0 336 0;
#X connect 13 0 339 0;
#X connect 14 0 343 0;
#X connect 15 0 344 0;
#X connect 16 0 342 0;
#X connect 17 0 340 0;
#X connect 18 0 341 0;
#X connect 19 0 28 0;
#X connect 20 0 19 0;
#X connect 21 0 20 0;
#X connect 22 0 28 0;
#X connect 23 0 22 0;
#X connect 24 0 23 0;
#X connect 25 0 28 0;
#X connect 26 0 25 0;
#X connect 27 0 26 0;
#X connect 28 0 349 0;
#X connect 29 0 21 0;
#X connect 30 0 24 0;
#X connect 31 0 27 0;
#X connect 32 0 28 1;
#X connect 33 0 42 0;
#X connect 34 0 33 0;
#X connect 35 0 34 0;
#X connect 36 0 42 0;
#X connect 37 0 36 0;
#X connect 38 0 37 0;
#X connect 39 0 42 0;
#X connect 40 0 39 0;
#X connect 41 0 40 0;
#X connect 42 0 349 0;
#X connect 43 0 35 0;
#X connect 44 0 38 0;
#X connect 45 0 41 0;
#X connect 46 0 42 1;
#X connect 47 0 56 0;
#X connect 48 0 47 0;
#X connect 49 0 48 0;
#X connect 50 0 56 0;
#X connect 51 0 50 0;
#X connect 52 0 51 0;
#X connect 53 0 56 0;
#X connect 54 0 53 0;
#X connect 55 0 54 0;
#X connect 56 0 349 0;
#X connect 57 0 49 0;
#X connect 58 0 52 0;
#X connect 59 0 55 0;
#X connect 60 0 56 1;
#X connect 61 0 70 0;
#X connect 62 0 61 0;
#X connect 63 0 62 0;
#X connect 64 0 70 0;
#X connect 65 0 64 0;
#X connect 66 0 65 0;
#X connect 67 0 70 0;
#X connect 68 0 67 0;
#X connect 69 0 68 0;
#X connect 70 0 349 0;
#X connect 71 0 63 0;
#X connect 72 0 66 0;
#X connect 73 0 69 0;
#X connect 74 0 70 1;
#X connect 75 0 84 0;
#X connect 76 0 75 0;
#X connect 77 0 76 0;
#X connect 78 0 84 0;
#X connect 79 0 78 0;
#X connect 80 0 79 0;
#X connect 81 0 84 0;
#X connect 82 0 81 0;
#X connect 83 0 82 0;
#X connect 84 0 349 0;
#X connect 85 0 77 0;
#X connect 86 0 80 0;
#X connect 87 0 83 0;
#X connect 88 0 84 1;
#X connect 89 0 98 0;
#X connect 90 0 89 0;
#X connect 91 0 90 0;
#X connect 92 0 98 0;
#X connect 93 0 92 0;
#X connect 94 0 93 0;
#X connect 95 0 98 0;
#X connect 96 0 95 0;
#X connect 97 0 96 0;
#X connect 98 0 349 0;
#X connect 99 0 91 0;
#X connect 100 0 94 0;
#X connect 101 0 97 0;
#X connect 102 0 98 1;
#X connect 103 0 112 0;
#X connect 104 0 103 0;
#X connect 105 0 104 0;
#X connect 106 0 112 0;
#X connect 107 0 106 0;
#X connect 108 0 107 0;
#X connect 109 0 112 0;
#X connect 110 0 109 0;
#X connect 111 0 110 0;
#X connect 112 0 349 0;
#X connect 113 0 105 0;
#X connect 114 0 108 0;
#X connect 115 0 111 0;
#X connect 116 0 112 1;
#X connect 117 0 126 0;
#X connect 118 0 117 0;
#X connect 119 0 118 0;
#X connect 120 0 126 0;
#X connect 121 0 120 0;
#X connect 122 0 121 0;
#X connect 123 0 126 0;
#X connect 124 0 123 0;
#X connect 125 0 124 0;
#X connect 126 0 349 0;
#X connect 127 0 119 0;
#X connect 128 0 122 0;
#X connect 129 0 125 0;
#X connect 130 0 126 1;
#X connect 132 0 133 0;
#X connect 132 0 7 0;
#X connect 132 0 43 0;
#X connect 132 0 44 0;
#X connect 132 0 45 0;
#X connect 134 0 22 1;
#X connect 135 0 29 0;
#X connect 135 0 30 0;
#X connect 135 0 131 0;
#X connect 135 0 31 0;
#X connect 135 0 6 0;
#X connect 136 0 19 1;
#X connect 137 0 134 0;
#X connect 138 0 136 0;
#X connect 139 0 25 1;
#X connect 140 0 139 0;
#X connect 141 0 33 1;
#X connect 142 0 141 0;
#X connect 143 0 36 1;
#X connect 144 0 143 0;
#X connect 145 0 39 1;
#X connect 146 0 145 0;
#X connect 147 0 47 1;
#X connect 148 0 147 0;
#X connect 149 0 50 1;
#X connect 150 0 149 0;
#X connect 151 0 53 1;
#X connect 152 0 151 0;
#X connect 153 0 61 1;
#X connect 154 0 153 0;
#X connect 155 0 64 1;
#X connect 156 0 155 0;
#X connect 157 0 67 1;
#X connect 158 0 157 0;
#X connect 159 0 75 1;
#X connect 160 0 159 0;
#X connect 161 0 78 1;
#X connect 162 0 161 0;
#X connect 163 0 81 1;
#X connect 164 0 163 0;
#X connect 165 0 89 1;
#X connect 166 0 165 0;
#X connect 167 0 92 1;
#X connect 168 0 167 0;
#X connect 169 0 95 1;
#X connect 170 0 169 0;
#X connect 171 0 103 1;
#X connect 172 0 171 0;
#X connect 173 0 106 1;
#X connect 174 0 173 0;
#X connect 175 0 109 1;
#X connect 176 0 175 0;
#X connect 177 0 117 1;
#X connect 178 0 177 0;
#X connect 179 0 120 1;
#X connect 180 0 179 0;
#X connect 181 0 123 1;
#X connect 182 0 181 0;
#X connect 183 0 192 0;
#X connect 184 0 183 0;
#X connect 185 0 184 0;
#X connect 186 0 192 0;
#X connect 187 0 186 0;
#X connect 188 0 187 0;
#X connect 189 0 192 0;
#X connect 190 0 189 0;
#X connect 191 0 190 0;
#X connect 192 0 349 0;
#X connect 193 0 185 0;
#X connect 194 0 188 0;
#X connect 195 0 191 0;
#X connect 196 0 192 1;
#X connect 197 0 183 1;
#X connect 198 0 197 0;
#X connect 199 0 186 1;
#X connect 200 0 199 0;
#X connect 201 0 189 1;
#X connect 202 0 201 0;
#X connect 203 0 212 0;
#X connect 204 0 203 0;
#X connect 205 0 204 0;
#X connect 206 0 212 0;
#X connect 207 0 206 0;
#X connect 208 0 207 0;
#X connect 209 0 212 0;
#X connect 210 0 209 0;
#X connect 211 0 210 0;
#X connect 212 0 349 0;
#X connect 213 0 205 0;
#X connect 214 0 208 0;
#X connect 215 0 211 0;
#X connect 216 0 212 1;
#X connect 217 0 203 1;
#X connect 218 0 217 0;
#X connect 219 0 206 1;
#X connect 220 0 219 0;
#X connect 221 0 209 1;
#X connect 222 0 221 0;
#X connect 223 0 232 0;
#X connect 224 0 223 0;
#X connect 225 0 224 0;
#X connect 226 0 232 0;
#X connect 227 0 226 0;
#X connect 228 0 227 0;
#X connect 229 0 232 0;
#X connect 230 0 229 0;
#X connect 231 0 230 0;
#X connect 232 0 349 0;
#X connect 233 0 225 0;
#X connect 234 0 228 0;
#X connect 235 0 231 0;
#X connect 236 0 232 1;
#X connect 237 0 223 1;
#X connect 238 0 237 0;
#X connect 239 0 226 1;
#X connect 240 0 239 0;
#X connect 241 0 229 1;
#X connect 242 0 241 0;
#X connect 243 0 252 0;
#X connect 244 0 243 0;
#X connect 245 0 244 0;
#X connect 246 0 252 0;
#X connect 247 0 246 0;
#X connect 248 0 247 0;
#X connect 249 0 252 0;
#X connect 250 0 249 0;
#X connect 251 0 250 0;
#X connect 252 0 349 0;
#X connect 253 0 245 0;
#X connect 254 0 248 0;
#X connect 255 0 251 0;
#X connect 256 0 252 1;
#X connect 257 0 243 1;
#X connect 258 0 257 0;
#X connect 259 0 246 1;
#X connect 260 0 259 0;
#X connect 261 0 249 1;
#X connect 262 0 261 0;
#X connect 263 0 272 0;
#X connect 264 0 263 0;
#X connect 265 0 264 0;
#X connect 266 0 272 0;
#X connect 267 0 266 0;
#X connect 268 0 267 0;
#X connect 269 0 272 0;
#X connect 270 0 269 0;
#X connect 271 0 270 0;
#X connect 272 0 349 0;
#X connect 273 0 265 0;
#X connect 274 0 268 0;
#X connect 275 0 271 0;
#X connect 276 0 272 1;
#X connect 277 0 263 1;
#X connect 278 0 277 0;
#X connect 279 0 266 1;
#X connect 280 0 279 0;
#X connect 281 0 269 1;
#X connect 282 0 281 0;
#X connect 283 0 284 0;
#X connect 283 0 59 0;
#X connect 283 0 58 0;
#X connect 283 0 57 0;
#X connect 283 0 8 0;
#X connect 290 0 285 0;
#X connect 290 0 71 0;
#X connect 290 0 72 0;
#X connect 290 0 73 0;
#X connect 290 0 9 0;
#X connect 291 0 286 0;
#X connect 291 0 85 0;
#X connect 291 0 86 0;
#X connect 291 0 87 0;
#X connect 291 0 10 0;
#X connect 292 0 287 0;
#X connect 292 0 11 0;
#X connect 292 0 101 0;
#X connect 292 0 100 0;
#X connect 292 0 99 0;
#X connect 293 0 288 0;
#X connect 293 0 115 0;
#X connect 293 0 114 0;
#X connect 293 0 113 0;
#X connect 293 0 12 0;
#X connect 294 0 289 0;
#X connect 294 0 129 0;
#X connect 294 0 128 0;
#X connect 294 0 127 0;
#X connect 294 0 13 0;
#X connect 295 0 296 0;
#X connect 295 0 14 0;
#X connect 295 0 195 0;
#X connect 295 0 194 0;
#X connect 295 0 193 0;
#X connect 297 0 298 0;
#X connect 297 0 15 0;
#X connect 297 0 215 0;
#X connect 297 0 214 0;
#X connect 297 0 213 0;
#X connect 300 0 299 0;
#X connect 300 0 233 0;
#X connect 300 0 234 0;
#X connect 300 0 235 0;
#X connect 300 0 16 0;
#X connect 301 0 302 0;
#X connect 301 0 253 0;
#X connect 301 0 254 0;
#X connect 301 0 255 0;
#X connect 301 0 17 0;
#X connect 303 0 304 0;
#X connect 303 0 273 0;
#X connect 303 0 274 0;
#X connect 303 0 275 0;
#X connect 303 0 18 0;
#X connect 305 0 306 0;
#X connect 306 0 138 0;
#X connect 306 0 137 0;
#X connect 306 0 140 0;
#X connect 307 0 308 0;
#X connect 308 0 142 0;
#X connect 308 0 144 0;
#X connect 308 0 146 0;
#X connect 309 0 310 0;
#X connect 310 0 148 0;
#X connect 310 0 150 0;
#X connect 310 0 152 0;
#X connect 311 0 312 0;
#X connect 312 0 156 0;
#X connect 312 0 158 0;
#X connect 312 0 154 0;
#X connect 313 0 314 0;
#X connect 314 0 160 0;
#X connect 314 0 162 0;
#X connect 314 0 164 0;
#X connect 315 0 316 0;
#X connect 316 0 172 0;
#X connect 316 0 174 0;
#X connect 316 0 176 0;
#X connect 317 0 318 0;
#X connect 318 0 166 0;
#X connect 318 0 168 0;
#X connect 318 0 170 0;
#X connect 319 0 320 0;
#X connect 320 0 178 0;
#X connect 320 0 180 0;
#X connect 320 0 182 0;
#X connect 321 0 322 0;
#X connect 322 0 198 0;
#X connect 322 0 200 0;
#X connect 322 0 202 0;
#X connect 323 0 324 0;
#X connect 324 0 218 0;
#X connect 324 0 220 0;
#X connect 324 0 222 0;
#X connect 325 0 326 0;
#X connect 326 0 258 0;
#X connect 326 0 260 0;
#X connect 326 0 262 0;
#X connect 327 0 328 0;
#X connect 328 0 278 0;
#X connect 328 0 280 0;
#X connect 328 0 282 0;
#X connect 329 0 330 0;
#X connect 330 0 238 0;
#X connect 330 0 240 0;
#X connect 330 0 242 0;
#X connect 331 0 332 0;
#X connect 332 0 2 0;
#X connect 333 0 32 0;
#X connect 334 0 46 0;
#X connect 335 0 102 0;
#X connect 336 0 116 0;
#X connect 337 0 60 0;
#X connect 338 0 74 0;
#X connect 339 0 130 0;
#X connect 340 0 256 0;
#X connect 341 0 276 0;
#X connect 342 0 236 0;
#X connect 343 0 196 0;
#X connect 344 0 216 0;
#X connect 345 0 88 0;
#X connect 346 0 347 0;
#X connect 346 0 347 1;
#X connect 346 0 354 0;
#X connect 348 0 350 0;
#X connect 349 0 346 0;
#X connect 350 0 346 1;
#X connect 351 0 349 1;
#X connect 352 0 351 0;
